<svg xmlns="http://www.w3.org/2000/svg" xmlns:xlink="http://www.w3.org/1999/xlink" contentStyleType="text/css" data-diagram-type="DESCRIPTION" height="841px" preserveAspectRatio="none" style="width:860px;height:841px;background:#FFFFFF;" version="1.1" viewBox="0 0 860 841" width="860px" zoomAndPan="magnify"><defs/><g><!--cluster Servi?o de Consolidacao--><g class="cluster" data-entity="Servi&#231;o de Consolidacao" data-source-line="9" data-uid="ent0006" id="cluster_Servi&#231;o de Consolidacao"><path d="M213.68,486.42 L406.5101,486.42 A3.75,3.75 0 0 1 409.0101,488.92 L416.0101,508.7169 L542.68,508.7169 A2.5,2.5 0 0 1 545.18,511.2169 L545.18,697.17 A2.5,2.5 0 0 1 542.68,699.67 L213.68,699.67 A2.5,2.5 0 0 1 211.18,697.17 L211.18,488.92 A2.5,2.5 0 0 1 213.68,486.42" fill="none" style="stroke:#000000;stroke-width:1.5;"/><line style="stroke:#000000;stroke-width:1.5;" x1="211.18" x2="416.0101" y1="508.7169" y2="508.7169"/><text fill="#000000" font-family="sans-serif" font-size="14" font-weight="bold" lengthAdjust="spacing" textLength="191.8301" x="215.18" y="501.4151">Servi&#231;o de Consolidacao</text></g><!--cluster Servi?o de Lancamentos--><g class="cluster" data-entity="Servi&#231;o de Lancamentos" data-source-line="16" data-uid="ent0013" id="cluster_Servi&#231;o de Lancamentos"><path d="M191.68,237.83 L385.0433,237.83 A3.75,3.75 0 0 1 387.5433,240.33 L394.5433,260.1269 L394.68,260.1269 A2.5,2.5 0 0 1 397.18,262.6269 L397.18,419.92 A2.5,2.5 0 0 1 394.68,422.42 L191.68,422.42 A2.5,2.5 0 0 1 189.18,419.92 L189.18,240.33 A2.5,2.5 0 0 1 191.68,237.83" fill="none" style="stroke:#000000;stroke-width:1.5;"/><line style="stroke:#000000;stroke-width:1.5;" x1="189.18" x2="394.5433" y1="260.1269" y2="260.1269"/><text fill="#000000" font-family="sans-serif" font-size="14" font-weight="bold" lengthAdjust="spacing" textLength="192.3633" x="193.18" y="252.8251">Servi&#231;o de Lancamentos</text></g><!--entity API Consolida??o--><g class="entity" data-entity="API Consolida&#231;&#227;o" data-source-line="10" data-uid="ent0007" id="entity_API Consolida&#231;&#227;o"><rect fill="#F1F1F1" height="36.2969" rx="2.5" ry="2.5" style="stroke:#181818;stroke-width:0.5;" width="139.7588" x="384.3" y="521.42"/><text fill="#000000" font-family="sans-serif" font-size="14" lengthAdjust="spacing" textLength="119.7588" x="394.3" y="544.4151">API Consolida&#231;&#227;o</text></g><!--entity Service Proje??o Incremental--><g class="entity" data-entity="Service Proje&#231;&#227;o Incremental" data-source-line="11" data-uid="ent0008" id="entity_Service Proje&#231;&#227;o Incremental"><rect fill="#F1F1F1" height="36.2969" rx="2.5" ry="2.5" style="stroke:#181818;stroke-width:0.5;" width="224.9004" x="265.73" y="647.37"/><text fill="#000000" font-family="sans-serif" font-size="14" lengthAdjust="spacing" textLength="204.9004" x="275.73" y="670.3651">Service Proje&#231;&#227;o Incremental</text></g><!--entity Dapr Pub/Sub--><g class="entity" data-entity="Dapr Pub/Sub" data-source-line="13" data-uid="ent0011" id="entity_Dapr Pub/Sub"><rect fill="#F1F1F1" height="36.2969" rx="2.5" ry="2.5" style="stroke:#181818;stroke-width:0.5;" width="116.0176" x="229.17" y="521.42"/><text fill="#000000" font-family="sans-serif" font-size="14" lengthAdjust="spacing" textLength="96.0176" x="239.17" y="544.4151">Dapr Pub/Sub</text></g><!--entity API Lan?amentos--><g class="entity" data-entity="API Lan&#231;amentos" data-source-line="17" data-uid="ent0014" id="entity_API Lan&#231;amentos"><rect fill="#F1F1F1" height="36.2969" rx="2.5" ry="2.5" style="stroke:#181818;stroke-width:0.5;" width="140.5996" x="226.88" y="272.83"/><text fill="#000000" font-family="sans-serif" font-size="14" lengthAdjust="spacing" textLength="120.5996" x="236.88" y="295.8251">API Lan&#231;amentos</text></g><!--entity Event Store--><g class="entity" data-entity="Event Store" data-source-line="18" data-uid="ent0015" id="entity_Event Store"><rect fill="#F1F1F1" height="36.2969" rx="2.5" ry="2.5" style="stroke:#181818;stroke-width:0.5;" width="101.8672" x="236.24" y="370.13"/><text fill="#000000" font-family="sans-serif" font-size="14" lengthAdjust="spacing" textLength="81.8672" x="246.24" y="393.1251">Event Store</text></g><!--entity IdP--><g class="entity" data-entity="IdP" data-source-line="3" data-uid="ent0002" id="entity_IdP"><rect fill="#F1F1F1" height="36.2969" rx="2.5" ry="2.5" style="stroke:#181818;stroke-width:0.5;" width="172.9404" x="681.71" y="137.42"/><text fill="#000000" font-family="sans-serif" font-size="14" lengthAdjust="spacing" textLength="152.9404" x="691.71" y="160.4151">Servi&#231;o de Identidade</text></g><!--entity Gateway--><g class="entity" data-entity="Gateway" data-source-line="4" data-uid="ent0003" id="entity_Gateway"><rect fill="#F1F1F1" height="36.2969" rx="2.5" ry="2.5" style="stroke:#181818;stroke-width:0.5;" width="108.4434" x="309.96" y="137.42"/><text fill="#000000" font-family="sans-serif" font-size="14" lengthAdjust="spacing" textLength="88.4434" x="319.96" y="160.4151">API Gateway</text></g><!--entity MongoDB_Lancamentos--><g class="entity" data-entity="MongoDB_Lancamentos" data-source-line="6" data-uid="ent0004" id="entity_MongoDB_Lancamentos"><path d="M6,518.78 C6,508.78 100.1777,508.78 100.1777,508.78 C100.1777,508.78 194.3555,508.78 194.3555,518.78 L194.3555,560.3738 C194.3555,570.3738 100.1777,570.3738 100.1777,570.3738 C100.1777,570.3738 6,570.3738 6,560.3738 L6,518.78" fill="#F1F1F1" style="stroke:#181818;stroke-width:0.5;"/><path d="M6,518.78 C6,528.78 100.1777,528.78 100.1777,528.78 C100.1777,528.78 194.3555,528.78 194.3555,518.78" fill="none" style="stroke:#181818;stroke-width:0.5;"/><text fill="#000000" font-family="sans-serif" font-size="14" lengthAdjust="spacing" textLength="168.3555" x="16" y="545.7751">MongoDB_Lancamentos</text><text fill="#000000" font-family="sans-serif" font-size="14" lengthAdjust="spacing" textLength="92.791" x="16" y="562.072">(Event Store)</text></g><!--entity MongoDB_Projecao--><g class="entity" data-entity="MongoDB_Projecao" data-source-line="7" data-uid="ent0005" id="entity_MongoDB_Projecao"><path d="M288.36,772.67 C288.36,762.67 378.1764,762.67 378.1764,762.67 C378.1764,762.67 467.9928,762.67 467.9928,772.67 L467.9928,814.2638 C467.9928,824.2638 378.1764,824.2638 378.1764,824.2638 C378.1764,824.2638 288.36,824.2638 288.36,814.2638 L288.36,772.67" fill="#F1F1F1" style="stroke:#181818;stroke-width:0.5;"/><path d="M288.36,772.67 C288.36,782.67 378.1764,782.67 378.1764,782.67 C378.1764,782.67 467.9928,782.67 467.9928,772.67" fill="none" style="stroke:#181818;stroke-width:0.5;"/><text fill="#000000" font-family="sans-serif" font-size="14" lengthAdjust="spacing" textLength="134.4629" x="298.36" y="799.6651">MongoDB_Projecao</text><text fill="#000000" font-family="sans-serif" font-size="14" lengthAdjust="spacing" textLength="159.6328" x="298.36" y="815.962">(Proje&#231;&#227;o Incremental)</text></g><!--entity Blazor UI--><g class="entity" data-entity="Blazor UI" data-source-line="23" data-uid="ent0019" id="entity_Blazor UI"><rect fill="#F1F1F1" height="36.2969" rx="2.5" ry="2.5" style="stroke:#181818;stroke-width:0.5;" width="82.5693" x="524.89" y="7"/><text fill="#000000" font-family="sans-serif" font-size="14" lengthAdjust="spacing" textLength="62.5693" x="534.89" y="29.9951">Blazor UI</text></g><g class="entity" data-entity="GMN24" data-source-line="29" data-uid="ent0025" id="entity_GMN24"><path d="M453.8,120.3 L453.8,151.56 L418.67,155.56 L453.8,159.56 L453.8,190.8312 A0,0 0 0 0 453.8,190.8312 L646.5549,190.8312 A0,0 0 0 0 646.5549,190.8312 L646.5549,130.3 L636.5549,120.3 L453.8,120.3 A0,0 0 0 0 453.8,120.3" fill="#FEFFDD" style="stroke:#181818;stroke-width:0.5;"/><path d="M636.5549,120.3 L636.5549,130.3 L646.5549,130.3 L636.5549,120.3" fill="#FEFFDD" style="stroke:#181818;stroke-width:0.5;"/><text fill="#000000" font-family="sans-serif" font-size="13" lengthAdjust="spacing" textLength="79.2632" x="459.8" y="137.3669">Middleware:</text><text fill="#000000" font-family="sans-serif" font-size="13" lengthAdjust="spacing" textLength="122.9414" x="459.8" y="152.4997">- Autentica&#231;&#227;o JWT</text><text fill="#000000" font-family="sans-serif" font-size="13" lengthAdjust="spacing" textLength="161.7129" x="459.8" y="167.6325">- Autoriza&#231;&#227;o por escopo</text><text fill="#000000" font-family="sans-serif" font-size="13" lengthAdjust="spacing" textLength="171.7549" x="459.8" y="182.7653">- Encaminhamento seguro</text></g><!--link Service Proje??o Incremental to MongoDB_Projecao--><g class="link" data-entity-1="Service Proje&#231;&#227;o Incremental" data-entity-2="MongoDB_Projecao" data-source-line="11" data-uid="lnk9" id="link_Service Proje&#231;&#227;o Incremental_MongoDB_Projecao"><path d="M378.18,684.03 C378.18,704.31 378.18,732.05 378.18,756.52" fill="none" id="Service Proje&#231;&#227;o Incremental-to-MongoDB_Projecao" style="stroke:#181818;stroke-width:1;"/><polygon fill="#181818" points="378.18,762.52,382.18,753.52,378.18,757.52,374.18,753.52,378.18,762.52" style="stroke:#181818;stroke-width:1;"/><text fill="#000000" font-family="sans-serif" font-size="13" lengthAdjust="spacing" textLength="163.5664" x="379.18" y="728.7369">Persiste leitura agregada</text></g><!--link API Consolida??o to Service Proje??o Incremental--><g class="link" data-entity-1="API Consolida&#231;&#227;o" data-entity-2="Service Proje&#231;&#227;o Incremental" data-source-line="12" data-uid="lnk10" id="link_API Consolida&#231;&#227;o_Service Proje&#231;&#227;o Incremental"><path d="M451.11,558.14 C447.68,574.46 440.98,598.95 429.18,617.37 C422.02,628.54 416.1801,634.9341 406.6201,643.0241" fill="none" id="API Consolida&#231;&#227;o-to-Service Proje&#231;&#227;o Incremental" style="stroke:#181818;stroke-width:1;"/><polygon fill="#181818" points="402.04,646.9,411.4941,644.1396,405.8568,643.6701,406.3263,638.0328,402.04,646.9" style="stroke:#181818;stroke-width:1;"/><text fill="#000000" font-family="sans-serif" font-size="13" lengthAdjust="spacing" textLength="59.998" x="438.18" y="613.4369">Saldo dia</text></g><!--link Dapr Pub/Sub to Service Proje??o Incremental--><g class="link" data-entity-1="Dapr Pub/Sub" data-entity-2="Service Proje&#231;&#227;o Incremental" data-source-line="13" data-uid="lnk12" id="link_Dapr Pub/Sub_Service Proje&#231;&#227;o Incremental"><path d="M270.5,558.07 C257.09,574.35 242.41,598.8 255.18,617.37 C264.25,630.56 272.1215,637.5043 286.6715,644.3543" fill="none" id="Dapr Pub/Sub-to-Service Proje&#231;&#227;o Incremental" style="stroke:#181818;stroke-width:1;"/><polygon fill="#181818" points="292.1,646.91,285.6611,639.4575,287.5763,644.7803,282.2535,646.6955,292.1,646.91" style="stroke:#181818;stroke-width:1;"/><text fill="#000000" font-family="sans-serif" font-size="13" lengthAdjust="spacing" textLength="164.3408" x="256.18" y="613.4369">Atualiza leitura agregada</text></g><!--link Event Store to MongoDB_Lancamentos--><g class="link" data-entity-1="Event Store" data-entity-2="MongoDB_Lancamentos" data-source-line="18" data-uid="lnk16" id="link_Event Store_MongoDB_Lancamentos"><path d="M235.99,403.72 C214.17,411.58 189.38,422.92 170.18,438.42 C146.58,457.48 130.4272,481.2625 118.1872,503.1625" fill="none" id="Event Store-to-MongoDB_Lancamentos" style="stroke:#181818;stroke-width:1;"/><polygon fill="#181818" points="115.26,508.4,123.1425,502.4953,117.6994,504.0354,116.1592,498.5923,115.26,508.4" style="stroke:#181818;stroke-width:1;"/><text fill="#000000" font-family="sans-serif" font-size="13" lengthAdjust="spacing" textLength="107.3198" x="171.18" y="451.4869">Persiste eventos</text><text fill="#000000" font-family="sans-serif" font-size="13" lengthAdjust="spacing" textLength="101.0928" x="174.2935" y="466.6197">(d&#233;bito/cr&#233;dito)</text></g><!--link API Lan?amentos to Event Store--><g class="link" data-entity-1="API Lan&#231;amentos" data-entity-2="Event Store" data-source-line="19" data-uid="lnk17" id="link_API Lan&#231;amentos_Event Store"><path d="M295.34,309.46 C293.54,326.65 291.4259,346.7827 289.6259,363.9427" fill="none" id="API Lan&#231;amentos-to-Event Store" style="stroke:#181818;stroke-width:1;"/><polygon fill="#181818" points="289,369.91,293.9171,361.3764,289.5216,364.9373,285.9607,360.5418,289,369.91" style="stroke:#181818;stroke-width:1;"/></g><!--link Event Store to Dapr Pub/Sub--><g class="link" data-entity-1="Event Store" data-entity-2="Dapr Pub/Sub" data-source-line="20" data-uid="lnk18" id="link_Event Store_Dapr Pub/Sub"><path d="M287.18,406.69 C287.18,435.46 287.18,486.57 287.18,515.26" fill="none" id="Event Store-to-Dapr Pub/Sub" style="stroke:#181818;stroke-width:1;"/><polygon fill="#181818" points="287.18,521.26,291.18,512.26,287.18,516.26,283.18,512.26,287.18,521.26" style="stroke:#181818;stroke-width:1;"/><text fill="#000000" font-family="sans-serif" font-size="13" lengthAdjust="spacing" textLength="102.5527" x="288.18" y="458.9869">Publica eventos</text></g><!--link Blazor UI to IdP--><g class="link" data-entity-1="Blazor UI" data-entity-2="IdP" data-source-line="23" data-uid="lnk20" id="link_Blazor UI_IdP"><path d="M593.84,43.74 C632.42,68.26 696.897,109.2504 735.457,133.7704" fill="none" id="Blazor UI-to-IdP" style="stroke:#181818;stroke-width:1;"/><polygon fill="#181818" points="740.52,136.99,735.0718,128.7853,736.3008,134.307,730.7791,135.536,740.52,136.99" style="stroke:#181818;stroke-width:1;"/><text fill="#000000" font-family="sans-serif" font-size="13" lengthAdjust="spacing" textLength="93.7422" x="661.18" y="86.3669">Login/Registro</text></g><!--link Blazor UI to Gateway--><g class="link" data-entity-1="Blazor UI" data-entity-2="Gateway" data-source-line="24" data-uid="lnk21" id="link_Blazor UI_Gateway"><path d="M538.51,43.74 C499.94,68.26 435.4634,109.251 396.8934,133.771" fill="none" id="Blazor UI-to-Gateway" style="stroke:#181818;stroke-width:1;"/><polygon fill="#181818" points="391.83,136.99,401.5711,135.5372,396.0495,134.3075,397.2792,128.7859,391.83,136.99" style="stroke:#181818;stroke-width:1;"/><text fill="#000000" font-family="sans-serif" font-size="13" lengthAdjust="spacing" textLength="68.4214" x="490.18" y="86.3669">Token JWT</text></g><!--link Gateway to API Lan?amentos--><g class="link" data-entity-1="Gateway" data-entity-2="API Lan&#231;amentos" data-source-line="25" data-uid="lnk22" id="link_Gateway_API Lan&#231;amentos"><path d="M355.42,174.01 C342.58,199.57 321.4725,241.5981 308.6325,267.1681" fill="none" id="Gateway-to-API Lan&#231;amentos" style="stroke:#181818;stroke-width:1;"/><polygon fill="#181818" points="305.94,272.53,313.5534,266.2821,308.1838,268.0617,306.4041,262.6921,305.94,272.53" style="stroke:#181818;stroke-width:1;"/></g><!--link Gateway to API Consolida??o--><g class="link" data-entity-1="Gateway" data-entity-2="API Consolida&#231;&#227;o" data-source-line="26" data-uid="lnk23" id="link_Gateway_API Consolida&#231;&#227;o"><path d="M368.84,174 C372.78,188.82 378.49,210.68 383.18,229.83 C410.23,340.42 438.6572,468.1709 449.0472,515.2609" fill="none" id="Gateway-to-API Consolida&#231;&#227;o" style="stroke:#181818;stroke-width:1;"/><polygon fill="#181818" points="450.34,521.12,452.3069,511.4695,449.2627,516.2374,444.4948,513.1932,450.34,521.12" style="stroke:#181818;stroke-width:1;"/></g><!--SRC=[ZLF1Rjim3BthAuYSraEGUmu3qhKOChI0CNVOeIi6Hc9TDOfeo7A6TjZNx13qE_nZe-KaS6CNwusY7jyZdwXgRNs90JUWULEo9n_p-EG80kc8ld2ar364IKvXQviTWo5O6W5RWuOcW9KSipvoaItXCqRwXK_fUXyhPJ3Y2Yk1NBCl-EByvnLwZHiXu-g7_t2vbGZoo87EKkK8R8Ga2_n86baOKjZichyCIwy3jJNeNfCTu4gLgDTOdCpsYNt5JeOJo0H-Au3RTg1ZEh7VjUbKfGd6HUzWElqu48KvP1GgMqK2HpRM0G6BG0KQV4CgyVnNR0uvEYCJsCHpWMM0h5xDydhrReP5hD7PPnnszkSDiteFq_DAiirkdqvEzHxsjIsz-hupj3siX6bULZRoJ8VcnKXmDghH3TXN6LKzSMNUXivgFEYrOzwUEtpc0D-MNOtijW2lkB1-zfKAQI_m0BJVS07Uy9eyVFb-emwv93nqPN1zkc3AipWHRF4GWU-FdmZWsXhZ90uqbzCK5dLiVwFk2fFsFir17hFBbj8jLPfBJfUNhUtMFtJjG4L5BMEHDz2g_WC0]--></g></svg>